<svg width="656" height="630" viewBox="0 0 656 630" fill="none" xmlns="http://www.w3.org/2000/svg">
<mask id="mask0_16_12" style="mask-type:luminance" maskUnits="userSpaceOnUse" x="0" y="0" width="656" height="630">
<path d="M557.6 0H98.4C44.0552 0 0 42.3091 0 94.5V535.5C0 587.691 44.0552 630 98.4 630H557.6C611.945 630 656 587.691 656 535.5V94.5C656 42.3091 611.945 0 557.6 0Z" fill="white"/>
</mask>
<g mask="url(#mask0_16_12)">
<path d="M656 0H0V630H656V0Z" fill="#8E51FF"/>
<g clip-path="url(#clip0_16_12)">
<path d="M345.922 171.398L383.878 181.402L302.455 466.364L264.499 456.359L345.922 171.398ZM215.457 189L243.061 215.939L135.215 317.873L242.864 416.846L215.64 444.15L78.72 318.251L215.457 189ZM434.324 189L571.061 318.251L434.141 444.15L406.917 416.846L514.553 317.873L406.72 215.939L434.324 189Z" fill="white"/>
</g>
</g>
<defs>
<clipPath id="clip0_16_12">
<rect width="590.4" height="567" fill="white" transform="translate(32.8 31.5)"/>
</clipPath>
</defs>
</svg>
